<svg id="Layer_1" data-name="Layer 1" xmlns="http://www.w3.org/2000/svg" viewBox="0 0 122.88 125.39"><title>30-minutes</title><path d="M113.06,30.25c-3.58-5.37-11.85-.66-8.71,5.3l.13.22a51.33,51.33,0,0,1,4.3,8.21,5.1,5.1,0,1,0,9.43-3.89,62.25,62.25,0,0,0-5.15-9.84ZM36.42,92.72l2.23-18.84h4.62l3.88,13.24L51,73.88H55.6l2.25,18.84H53.11L51.66,80.6l.71,0-3,12.1H44.79l-3-12.1.78,0L41.16,92.72Zm24.35,0V73.88h4.92V92.72Zm8.34,0V73.88H73l6.62,10.5V73.88h4.92V92.72h-3.9L74,82.22v10.5ZM49,68.06q-3.42,0-6.62-.3a56.05,56.05,0,0,1-5.94-.86V60.24h9.31a15.47,15.47,0,0,0,2.59-.17,2.24,2.24,0,0,0,1.26-.56,1.55,1.55,0,0,0,.34-1.07v-.81a2,2,0,0,0-.38-1.24,2.31,2.31,0,0,0-1.11-.7,6.8,6.8,0,0,0-1.8-.28L39,55.07V48.66l7.23-.47a7.83,7.83,0,0,0,2.52-.51,1.4,1.4,0,0,0,.81-1.37v-.39a1.88,1.88,0,0,0-.86-1.75,6.76,6.76,0,0,0-3.16-.51H36.84V37q2.79-.47,5.86-.87a39.18,39.18,0,0,1,6.24-.33,12.21,12.21,0,0,1,4.72.92,6.59,6.59,0,0,1,3.05,2.65,8.58,8.58,0,0,1,1.07,4.51V46a9.51,9.51,0,0,1-.19,2A5.55,5.55,0,0,1,57,49.66,4.44,4.44,0,0,1,55.86,51a5.32,5.32,0,0,1-1.67.9,4.58,4.58,0,0,1,1.78,1,5.89,5.89,0,0,1,1.24,1.56,8.12,8.12,0,0,1,.74,2,11,11,0,0,1,.26,2.42v1.24A7.3,7.3,0,0,1,55.75,66a10.27,10.27,0,0,1-6.77,2Zm20.94,0a10.24,10.24,0,0,1-4.85-1,6.37,6.37,0,0,1-2.88-3,10.48,10.48,0,0,1-.94-4.63V44.85a11,11,0,0,1,1-5,6.87,6.87,0,0,1,3-3.06A9.94,9.94,0,0,1,70,35.79h6.92a9.15,9.15,0,0,1,4.56,1.05,6.87,6.87,0,0,1,2.82,3.06,11.44,11.44,0,0,1,1,5V59.43a8.89,8.89,0,0,1-2.16,6.32,8.1,8.1,0,0,1-6.22,2.31Zm2-7.44h2.56a2.13,2.13,0,0,0,2.4-2.48V45.71a2.52,2.52,0,0,0-.6-2,2.19,2.19,0,0,0-1.45-.49H71.67a2,2,0,0,0-1.62.6,2.85,2.85,0,0,0-.52,1.88V58.1a2.65,2.65,0,0,0,.6,1.95,2.6,2.6,0,0,0,1.84.57Zm32.66-43.93a5.37,5.37,0,0,1,.33,1.57A5.14,5.14,0,0,1,101.39,24L87.7,28.18a5.13,5.13,0,0,1-3-9.81L86,18A51.55,51.55,0,0,0,61.21,11.7,52,52,0,0,0,48.8,114.2a5.31,5.31,0,0,1,2.29,0,51.74,51.74,0,0,0,9.2,1l-.59.48h.59v-.49h0a4.81,4.81,0,0,1,2.8.92,4.61,4.61,0,0,1-.07,8.41,5.21,5.21,0,0,1-2.93.87,69.72,69.72,0,0,1-11.05-1.23,5.21,5.21,0,0,1-1.08-.34,6.25,6.25,0,0,1-1-.56A61.22,61.22,0,1,1,91.2,10.33L89.91,7a5.14,5.14,0,0,1,9.61-3.66l5.11,13.38ZM60.13,124.9a62.52,62.52,0,0,1-10.59-1.1l-.46.36,11.05,1.23v-.49Zm18.42-12.61a4.9,4.9,0,0,0-1.57.9,5.1,5.1,0,0,0,5,8.72,63.09,63.09,0,0,0,10.1-4.62A5.1,5.1,0,0,0,87,108.44a49.32,49.32,0,0,1-8.43,3.85ZM101,96.53A5.11,5.11,0,0,0,107.8,104a5.28,5.28,0,0,0,1.16-1,62.79,62.79,0,0,0,6.21-9.22,5.11,5.11,0,0,0-8.62-5.43A75.92,75.92,0,0,1,101,96.53ZM112.1,71.31a5.11,5.11,0,0,0,9.79,2.63,5.75,5.75,0,0,0,.31-1.15,61.25,61.25,0,0,0,.64-11.08c-.28-6.29-9.56-6.74-10.19-.11v.83a52.78,52.78,0,0,1-.56,8.88Z"/></svg>