<?xml version="1.0" encoding="utf-8"?><svg version="1.1" id="Layer_1" xmlns="http://www.w3.org/2000/svg" xmlns:xlink="http://www.w3.org/1999/xlink" x="0px" y="0px" width="121.565px" height="122.88px" viewBox="0 0 121.565 122.88" enable-background="new 0 0 121.565 122.88" xml:space="preserve"><g><path fill-rule="evenodd" clip-rule="evenodd" d="M61.44,0c18.854,0,35.724,8.493,46.992,21.863l7.76-7.76v25.464H90.728 l7.282-7.281c-8.656-11.037-22.112-18.128-37.227-18.128c-26.113,0-47.283,21.169-47.283,47.282 c0,26.113,21.169,47.283,47.283,47.283c21.718,0,40.014-14.644,45.559-34.592h15.224c-5.847,27.843-30.543,48.749-60.125,48.749 C27.508,122.88,0,95.372,0,61.439C0,27.508,27.508,0,61.44,0L61.44,0z M60.585,79.843H35.262v-5.485L46.922,62.1 c2.876-3.276,4.313-5.871,4.313-7.801c0-1.558-0.34-2.748-1.021-3.556c-0.68-0.816-1.676-1.225-2.969-1.225 c-1.276,0-2.313,0.544-3.113,1.633c-0.801,1.088-1.2,2.442-1.2,4.075h-8.422c0-2.229,0.553-4.288,1.669-6.178 c1.114-1.88,2.663-3.358,4.635-4.422c1.982-1.063,4.186-1.592,6.635-1.592c3.912,0,6.933,0.902,9.051,2.714 c2.127,1.812,3.182,4.416,3.182,7.801c0,1.429-0.263,2.823-0.8,4.177c-0.526,1.352-1.352,2.771-2.474,4.262 c-1.123,1.487-2.928,3.469-5.42,5.961l-4.688,5.411h14.284V79.843L60.585,79.843z M84.834,65.662h3.692v6.483h-3.692v7.697h-8.397 v-7.697H62.411l-0.504-5.139l14.529-23.375v-0.077h8.397V65.662L84.834,65.662z M69.903,65.662h6.533V54.494l-0.519,0.851 L69.903,65.662L69.903,65.662z"/></g></svg>